<?xml version="1.0" encoding="UTF-8"?>
<svg xmlns="http://www.w3.org/2000/svg" xmlns:xlink="http://www.w3.org/1999/xlink" width="414px" height="118px" viewBox="0 0 414 118" version="1.1">
<g id="surface1">
<path style=" stroke:none;fill-rule:nonzero;fill:rgb(100%,100%,100%);fill-opacity:1;" d="M 211.371094 71.585938 C 212.730469 72.066406 214.042969 71.585938 215.34375 72.011719 C 217.730469 72.792969 218.394531 74.429688 217.332031 76.917969 C 216.78125 78.199219 216.375 79.53125 216.113281 80.90625 C 216.066406 81.179688 215.902344 81.292969 215.625 81.242188 L 215.351562 81.195312 C 215.214844 81.171875 215.09375 81.09375 215.015625 80.976562 C 214.9375 80.863281 214.914062 80.722656 214.941406 80.585938 L 215.921875 76.46875 C 215.980469 76.210938 215.949219 75.964844 215.824219 75.730469 C 215.246094 74.605469 213.957031 74.164062 212.738281 74.4375 C 210.890625 74.847656 209.414062 74.25 208.300781 72.644531 C 206.558594 70.148438 208.660156 67.074219 210.972656 66.054688 C 214.421875 64.539062 218.289062 63.023438 220.464844 59.707031 C 221.335938 58.378906 221.136719 57.316406 219.871094 56.519531 C 219.617188 56.355469 219.308594 56.300781 219.011719 56.367188 C 215.90625 57.082031 216.195312 60.558594 214.460938 62.539062 C 212.6875 64.585938 210.554688 65.226562 208.066406 64.464844 C 205.109375 63.558594 203.714844 61.460938 203.878906 58.179688 C 204.152344 52.640625 208.699219 51.757812 213.113281 51.117188 C 214.011719 50.988281 214.578125 50.550781 214.804688 49.808594 C 214.949219 49.332031 214.875 48.8125 214.59375 48.402344 C 214.316406 47.988281 213.867188 47.71875 213.371094 47.671875 C 209.214844 47.28125 205.613281 47.007812 202.972656 43.289062 C 199.28125 38.105469 205.332031 31.628906 211.164062 33.945312 C 213.207031 34.761719 215.039062 35.644531 216.660156 36.605469 C 217.792969 37.277344 220.109375 37.894531 221.160156 36.734375 C 222.628906 35.09375 222.050781 32.917969 220.09375 31.972656 C 219.074219 31.476562 217.871094 31.105469 216.492188 30.863281 C 212.738281 30.21875 210.335938 28.460938 209.285156 25.589844 C 208.910156 24.5625 208.460938 24.160156 207.730469 23.429688 C 207.5 23.203125 207.359375 22.925781 207.3125 22.605469 C 206.902344 19.972656 207.480469 17.722656 209.054688 15.855469 C 209.289062 15.574219 209.640625 15.414062 210.007812 15.421875 C 210.371094 15.429688 210.714844 15.605469 210.9375 15.894531 C 212.222656 17.558594 212.816406 19.542969 212.71875 21.851562 C 212.671875 22.828125 212.023438 23.304688 211.4375 23.960938 C 211.183594 24.242188 211.179688 24.667969 211.429688 24.957031 C 214.140625 28.054688 216.699219 27.832031 220.328125 28.59375 C 224.027344 29.367188 225.972656 31.429688 226.160156 34.773438 C 226.265625 36.691406 225.421875 38.363281 223.625 39.789062 C 219.597656 42.984375 215.3125 40.257812 211.507812 38.144531 C 209.703125 37.140625 207.273438 36.859375 206.207031 39.070312 C 205.042969 41.484375 208.402344 43.011719 210.265625 43.210938 C 213.441406 43.554688 217.4375 43.21875 218.816406 46.855469 C 220.886719 52.3125 215.632812 53.957031 211.484375 54.707031 C 210.421875 54.894531 209.535156 55.324219 208.828125 55.996094 C 205.425781 59.25 210.242188 62.886719 212.464844 59.660156 C 213.304688 58.425781 214.050781 57.164062 214.710938 55.871094 C 216.257812 52.804688 221.144531 51.992188 223.191406 54.953125 C 226.214844 59.3125 222.082031 63.328125 218.585938 65.734375 C 216.53125 67.15625 214.132812 67.636719 211.917969 68.738281 C 210.875 69.25 210.515625 70.019531 210.84375 71.039062 C 210.921875 71.292969 211.121094 71.496094 211.371094 71.585938 Z M 211.371094 71.585938 "/>
<path style=" stroke:none;fill-rule:nonzero;fill:rgb(100%,100%,100%);fill-opacity:1;" d="M 73.355469 70.125 C 75.882812 69.523438 78.476562 66.503906 75.363281 64.484375 C 73.75 63.429688 71.421875 63.117188 69.488281 62.941406 C 67.035156 62.722656 64.714844 62.125 62.535156 61.152344 C 55.070312 57.820312 56.78125 49.199219 63.914062 46.933594 C 70.199219 44.945312 75.8125 45.882812 80.761719 49.746094 C 80.984375 49.917969 81.121094 50.175781 81.148438 50.453125 C 81.175781 50.734375 81.085938 51.011719 80.898438 51.222656 L 78.75 53.679688 C 78.40625 54.074219 78.039062 54.09375 77.648438 53.742188 C 73.914062 50.304688 69.730469 49.511719 65.09375 51.359375 C 63.9375 51.816406 63.292969 52.640625 63.160156 53.832031 C 62.804688 56.976562 68.871094 57.988281 71.132812 58.164062 C 75.746094 58.527344 82.734375 60.542969 82.117188 66.488281 C 81.726562 70.265625 79.703125 72.753906 76.042969 73.945312 C 68.792969 76.324219 62.210938 75.007812 56.300781 69.996094 C 56.179688 69.898438 56.164062 69.722656 56.257812 69.605469 L 59.285156 65.855469 C 59.359375 65.769531 59.433594 65.765625 59.507812 65.847656 C 63.363281 69.960938 67.980469 71.386719 73.355469 70.125 Z M 73.355469 70.125 "/>
<path style=" stroke:none;fill-rule:nonzero;fill:rgb(100%,100%,100%);fill-opacity:1;" d="M 243.273438 68.839844 C 248.457031 71.328125 253.054688 70.222656 257.472656 67.066406 C 258 66.691406 258.375 66.808594 258.605469 67.414062 C 258.964844 68.347656 259.457031 69.207031 260.082031 69.988281 C 260.488281 70.492188 260.425781 70.921875 259.890625 71.28125 C 252.964844 75.960938 243.785156 76.699219 237.382812 71.050781 C 232.097656 66.386719 231.351562 57.859375 235.617188 52.226562 C 241.628906 44.292969 253.164062 44.472656 260.53125 50.449219 C 260.628906 50.53125 260.648438 50.675781 260.570312 50.78125 L 257.796875 54.554688 C 257.757812 54.605469 257.695312 54.640625 257.628906 54.648438 C 257.5625 54.65625 257.496094 54.636719 257.441406 54.59375 C 252.660156 50.394531 246.007812 49.480469 241.019531 53.832031 C 236.277344 57.964844 237.359375 65.992188 243.273438 68.839844 Z M 243.273438 68.839844 "/>
<path style=" stroke:none;fill-rule:nonzero;fill:rgb(100%,100%,100%);fill-opacity:1;" d="M 112.421875 46.398438 L 117.917969 46.347656 C 118.007812 46.347656 118.09375 46.402344 118.132812 46.480469 C 118.175781 46.5625 118.164062 46.660156 118.109375 46.734375 L 105.753906 63.351562 C 105.722656 63.390625 105.707031 63.441406 105.707031 63.496094 L 105.84375 74.285156 C 105.84375 74.417969 105.734375 74.523438 105.601562 74.523438 L 101.027344 74.589844 C 100.894531 74.589844 100.789062 74.480469 100.789062 74.347656 L 100.804688 63.488281 C 100.804688 63.433594 100.789062 63.382812 100.757812 63.34375 L 87.796875 46.75 C 87.738281 46.675781 87.726562 46.578125 87.769531 46.492188 C 87.808594 46.40625 87.898438 46.355469 87.992188 46.355469 L 93.976562 46.398438 C 94.050781 46.398438 94.125 46.433594 94.167969 46.492188 L 103.195312 58.628906 C 103.242188 58.695312 103.316406 58.730469 103.394531 58.730469 C 103.472656 58.726562 103.542969 58.6875 103.589844 58.621094 L 112.230469 46.492188 C 112.273438 46.433594 112.347656 46.398438 112.421875 46.398438 Z M 112.421875 46.398438 "/>
<path style=" stroke:none;fill-rule:nonzero;fill:rgb(100%,100%,100%);fill-opacity:1;" d="M 130.761719 54.808594 C 131.507812 61.035156 131.746094 67.527344 131.476562 74.292969 C 131.472656 74.464844 131.382812 74.546875 131.210938 74.546875 L 126.671875 74.566406 C 126.5 74.566406 126.414062 74.480469 126.414062 74.316406 L 126.40625 46.949219 C 126.40625 46.578125 126.597656 46.386719 126.976562 46.382812 L 130.601562 46.363281 C 130.914062 46.363281 131.183594 46.472656 131.414062 46.6875 C 132.203125 47.425781 132.964844 48.199219 133.691406 49.015625 C 138.3125 54.171875 143.113281 59.449219 148.09375 64.84375 C 148.730469 65.535156 149.304688 66.265625 149.816406 67.035156 C 150.285156 67.730469 150.566406 67.660156 150.667969 66.828125 C 150.71875 66.359375 150.363281 65.75 150.339844 65.238281 C 150.050781 59.097656 149.953125 52.898438 150.042969 46.636719 C 150.046875 46.503906 150.117188 46.4375 150.25 46.4375 L 154.664062 46.382812 C 154.769531 46.378906 154.871094 46.417969 154.949219 46.492188 C 155.023438 46.566406 155.066406 46.667969 155.066406 46.773438 L 155.074219 74.25 C 155.074219 74.53125 154.933594 74.664062 154.648438 74.652344 L 150.410156 74.507812 C 150.175781 74.5 149.953125 74.398438 149.792969 74.226562 L 131.515625 54.457031 C 130.902344 53.792969 130.652344 53.910156 130.761719 54.808594 Z M 130.761719 54.808594 "/>
<path style=" stroke:none;fill-rule:nonzero;fill:rgb(100%,100%,100%);fill-opacity:1;" d="M 167.148438 46.78125 C 167.148438 46.601562 167.296875 46.453125 167.476562 46.453125 L 181.566406 46.429688 C 189.441406 46.414062 195.835938 52.570312 195.847656 60.171875 L 195.847656 60.832031 C 195.859375 68.433594 189.488281 74.605469 181.613281 74.621094 L 167.527344 74.644531 C 167.34375 74.644531 167.195312 74.496094 167.195312 74.316406 Z M 172.324219 51.390625 L 172.417969 69.773438 C 172.417969 69.875 172.503906 69.957031 172.605469 69.957031 L 181.269531 69.910156 C 186.324219 69.882812 190.402344 66.003906 190.375 61.246094 L 190.367188 59.722656 C 190.34375 54.96875 186.226562 51.132812 181.171875 51.15625 L 172.507812 51.207031 C 172.40625 51.207031 172.324219 51.289062 172.324219 51.390625 Z M 172.324219 51.390625 "/>
<path style=" stroke:none;fill-rule:nonzero;fill:rgb(100%,100%,100%);fill-opacity:1;" d="M 274.699219 68.578125 L 272.246094 74.355469 C 272.203125 74.449219 272.113281 74.507812 272.011719 74.507812 L 267.207031 74.621094 C 267.117188 74.625 267.035156 74.578125 266.988281 74.507812 C 266.9375 74.433594 266.929688 74.339844 266.964844 74.257812 L 279.609375 46.542969 C 279.652344 46.449219 279.742188 46.390625 279.84375 46.390625 L 284.695312 46.375 C 284.800781 46.371094 284.894531 46.429688 284.9375 46.527344 L 297.484375 74.226562 C 297.519531 74.308594 297.515625 74.398438 297.46875 74.472656 C 297.421875 74.542969 297.339844 74.589844 297.253906 74.589844 L 292.398438 74.53125 C 292.300781 74.535156 292.210938 74.476562 292.167969 74.386719 L 289.414062 68.578125 C 289.371094 68.488281 289.28125 68.429688 289.183594 68.433594 L 274.933594 68.414062 C 274.832031 68.417969 274.738281 68.480469 274.699219 68.578125 Z M 287 63.976562 C 287.128906 63.972656 287.25 63.902344 287.316406 63.789062 C 287.378906 63.675781 287.378906 63.535156 287.3125 63.421875 C 285.382812 60.109375 283.898438 56.726562 282.859375 53.277344 C 282.515625 52.140625 282.109375 52.117188 281.640625 53.203125 L 277.132812 63.617188 C 277.09375 63.703125 277.101562 63.800781 277.152344 63.882812 C 277.207031 63.960938 277.292969 64.007812 277.386719 64.007812 Z M 287 63.976562 "/>
<path style=" stroke:none;fill-rule:nonzero;fill:rgb(100%,100%,100%);fill-opacity:1;" d="M 310.851562 51.164062 L 301.585938 51.207031 C 301.445312 51.207031 301.328125 51.089844 301.328125 50.949219 L 301.3125 46.679688 C 301.3125 46.535156 301.429688 46.421875 301.570312 46.421875 L 326.371094 46.492188 C 326.511719 46.492188 326.625 46.609375 326.625 46.75 L 326.585938 50.890625 C 326.585938 51.035156 326.472656 51.148438 326.328125 51.148438 L 316.507812 51.109375 C 316.367188 51.109375 316.253906 51.222656 316.253906 51.367188 L 316.238281 74.332031 C 316.238281 74.472656 316.121094 74.589844 315.980469 74.589844 L 311.351562 74.539062 C 311.207031 74.539062 311.09375 74.425781 311.09375 74.285156 L 311.109375 51.421875 C 311.109375 51.28125 310.996094 51.164062 310.851562 51.164062 Z M 310.851562 51.164062 "/>
<path style=" stroke:none;fill-rule:nonzero;fill:rgb(100%,100%,100%);fill-opacity:1;" d="M 340.90625 57.988281 L 355.332031 57.988281 C 355.496094 57.988281 355.628906 58.121094 355.628906 58.285156 L 355.628906 62.265625 C 355.628906 62.429688 355.496094 62.5625 355.332031 62.5625 L 340.867188 62.5 C 340.703125 62.5 340.570312 62.632812 340.570312 62.796875 L 340.609375 69.714844 C 340.609375 69.878906 340.746094 70.011719 340.90625 70.011719 L 357.46875 69.972656 C 357.632812 69.972656 357.765625 70.105469 357.765625 70.269531 L 357.742188 74.316406 C 357.742188 74.480469 357.609375 74.613281 357.445312 74.613281 L 335.972656 74.597656 C 335.808594 74.597656 335.675781 74.464844 335.675781 74.300781 L 335.660156 46.71875 C 335.660156 46.554688 335.792969 46.421875 335.957031 46.421875 L 357.355469 46.445312 C 357.515625 46.445312 357.648438 46.574219 357.652344 46.734375 L 357.726562 50.675781 C 357.726562 50.757812 357.695312 50.832031 357.640625 50.890625 C 357.585938 50.949219 357.507812 50.980469 357.429688 50.980469 L 340.851562 51.046875 C 340.6875 51.046875 340.554688 51.179688 340.554688 51.34375 L 340.609375 57.691406 C 340.609375 57.855469 340.746094 57.988281 340.90625 57.988281 Z M 340.90625 57.988281 "/>
<path style=" stroke:none;fill-rule:nonzero;fill:rgb(100%,100%,100%);fill-opacity:1;" d="M 164.636719 99.488281 L 170.398438 99.417969 C 170.691406 99.417969 170.855469 99.5625 170.886719 99.851562 L 170.953125 100.339844 C 171.019531 100.835938 170.800781 101.085938 170.292969 101.085938 L 162.878906 101.054688 C 162.601562 101.054688 162.375 100.828125 162.375 100.550781 L 162.300781 90.5625 C 162.300781 90.023438 162.5625 89.679688 163.082031 89.535156 C 163.1875 89.503906 163.292969 89.496094 163.402344 89.511719 C 163.835938 89.566406 164.050781 89.8125 164.050781 90.25 L 164.042969 98.894531 C 164.042969 99.292969 164.242188 99.488281 164.636719 99.488281 Z M 164.636719 99.488281 "/>
<path style=" stroke:none;fill-rule:nonzero;fill:rgb(100%,100%,100%);fill-opacity:1;" d="M 187.277344 95.414062 C 187.273438 98.6875 184.339844 101.332031 180.730469 101.328125 C 177.117188 101.320312 174.195312 98.664062 174.199219 95.390625 C 174.207031 92.121094 177.140625 89.472656 180.75 89.480469 C 184.363281 89.484375 187.285156 92.144531 187.277344 95.414062 Z M 185.523438 95.410156 C 185.523438 93.035156 183.367188 91.109375 180.707031 91.109375 C 178.050781 91.109375 175.894531 93.035156 175.894531 95.410156 C 175.894531 97.789062 178.050781 99.714844 180.707031 99.714844 C 183.367188 99.714844 185.523438 97.789062 185.523438 95.410156 Z M 185.523438 95.410156 "/>
<path style=" stroke:none;fill-rule:nonzero;fill:rgb(100%,100%,100%);fill-opacity:1;" d="M 193.472656 92.511719 C 193.085938 92.070312 192.910156 92.140625 192.941406 92.730469 L 193.382812 100.300781 C 193.40625 100.710938 193.214844 100.949219 192.808594 101.007812 L 192.078125 101.109375 C 191.730469 101.160156 191.554688 101.007812 191.554688 100.660156 L 191.554688 91.359375 C 191.554688 89.007812 192.335938 88.710938 193.898438 90.464844 L 201.070312 98.492188 C 201.375 98.832031 201.582031 98.78125 201.6875 98.339844 C 201.769531 98.019531 201.710938 97.71875 201.519531 97.433594 C 201.363281 97.210938 201.289062 96.960938 201.289062 96.6875 L 201.269531 89.953125 C 201.269531 89.777344 201.359375 89.691406 201.535156 89.695312 L 202.746094 89.695312 C 202.992188 89.703125 203.117188 89.824219 203.117188 90.066406 L 203.101562 100.386719 C 203.101562 100.640625 202.988281 100.820312 202.765625 100.933594 C 202.027344 101.3125 201.367188 101.195312 200.789062 100.582031 C 198.296875 97.9375 195.859375 95.25 193.472656 92.511719 Z M 193.472656 92.511719 "/>
<path style=" stroke:none;fill-rule:nonzero;fill:rgb(100%,100%,100%);fill-opacity:1;" d="M 236.011719 95.433594 C 236 98.710938 233.070312 101.355469 229.46875 101.34375 C 225.867188 101.332031 222.953125 98.664062 222.964844 95.386719 C 222.976562 92.113281 225.90625 89.464844 229.511719 89.480469 C 233.113281 89.492188 236.023438 92.15625 236.011719 95.433594 Z M 234.367188 95.410156 C 234.363281 93.046875 232.171875 91.136719 229.472656 91.140625 C 226.773438 91.144531 224.589844 93.066406 224.59375 95.429688 C 224.597656 97.789062 226.789062 99.703125 229.488281 99.699219 C 232.1875 99.691406 234.371094 97.773438 234.367188 95.410156 Z M 234.367188 95.410156 "/>
<path style=" stroke:none;fill-rule:nonzero;fill:rgb(100%,100%,100%);fill-opacity:1;" d="M 241.726562 92.480469 L 241.972656 100.621094 C 241.984375 100.824219 241.894531 100.953125 241.699219 101.007812 C 241.335938 101.113281 240.972656 101.128906 240.609375 101.054688 C 240.320312 101 240.175781 100.828125 240.175781 100.53125 L 240.199219 91.476562 C 240.207031 89.171875 241.003906 88.851562 242.589844 90.523438 C 244.734375 92.78125 247.042969 95.34375 249.507812 98.214844 C 250.191406 99.011719 250.453125 98.890625 250.292969 97.851562 C 249.914062 95.421875 249.8125 92.796875 249.988281 89.976562 C 249.996094 89.863281 250.050781 89.757812 250.136719 89.6875 C 250.222656 89.617188 250.335938 89.585938 250.445312 89.601562 L 251.488281 89.71875 C 251.6875 89.746094 251.785156 89.863281 251.785156 90.066406 L 251.84375 100.386719 C 251.847656 100.632812 251.742188 100.8125 251.519531 100.925781 C 250.789062 101.3125 250.125 101.1875 249.53125 100.558594 C 246.894531 97.753906 244.394531 95.023438 242.03125 92.367188 C 241.980469 92.3125 241.902344 92.292969 241.832031 92.320312 C 241.765625 92.34375 241.722656 92.410156 241.726562 92.480469 Z M 241.726562 92.480469 "/>
<path style=" stroke:none;fill-rule:nonzero;fill:rgb(100%,100%,100%);fill-opacity:1;" d="M 219.285156 97.320312 C 218.121094 102.210938 212.070312 101.023438 208.539062 101.046875 C 208.308594 101.046875 208.195312 100.933594 208.195312 100.710938 L 208.195312 90.121094 C 208.195312 89.804688 208.351562 89.65625 208.667969 89.671875 C 211.195312 89.785156 214.308594 89.199219 216.585938 90.371094 C 219.175781 91.699219 220.074219 94.015625 219.285156 97.320312 Z M 209.777344 91.65625 L 209.742188 99.152344 C 209.742188 99.320312 209.878906 99.457031 210.050781 99.457031 L 213.890625 99.472656 C 216.066406 99.480469 217.839844 97.761719 217.847656 95.628906 L 217.847656 95.242188 C 217.855469 93.109375 216.101562 91.375 213.925781 91.367188 L 210.082031 91.351562 C 209.914062 91.351562 209.777344 91.484375 209.777344 91.65625 Z M 209.777344 91.65625 "/>
</g>
</svg>
