<?xml version="1.0" encoding="UTF-8" standalone="no"?>
<!DOCTYPE svg PUBLIC "-//W3C//DTD SVG 1.1//EN" "http://www.w3.org/Graphics/SVG/1.1/DTD/svg11.dtd">
<svg xmlns="http://www.w3.org/2000/svg" version="1.1" viewBox="0.00 0.00 516.00 147.00" width="516.00" height="147.00">
<path fill="#ffffff" d="
  M 263.45 89.18
  C 265.14 89.78 266.78 89.18 268.40 89.71
  Q 272.86 91.17 270.88 95.82
  Q 269.85 98.22 269.36 100.79
  Q 269.27 101.30 268.75 101.21
  L 268.41 101.15
  A 0.63 0.63 0.0 0 1 267.90 100.39
  L 269.12 95.26
  Q 269.23 94.78 269.00 94.34
  C 268.28 92.94 266.67 92.39 265.15 92.73
  Q 261.70 93.50 259.62 90.50
  C 257.45 87.39 260.07 83.56 262.95 82.29
  C 267.25 80.40 272.07 78.51 274.78 74.38
  Q 276.41 71.90 274.04 70.41
  A 1.41 1.38 -34.3 0 0 272.97 70.22
  C 269.10 71.11 269.46 75.44 267.30 77.91
  Q 263.98 81.73 259.33 80.31
  Q 253.80 78.61 254.11 72.48
  C 254.45 65.58 260.12 64.48 265.62 63.68
  Q 267.30 63.44 267.73 62.05
  A 2.07 2.07 0.0 0 0 265.94 59.39
  C 260.76 58.90 256.27 58.56 252.98 53.93
  C 248.38 47.47 255.92 39.40 263.19 42.29
  Q 267.01 43.81 270.04 45.60
  C 271.45 46.44 274.34 47.21 275.65 45.76
  C 277.48 43.72 276.76 41.01 274.32 39.83
  Q 272.41 38.90 269.83 38.45
  Q 262.81 37.24 260.85 31.88
  C 260.38 30.60 259.82 30.10 258.91 29.19
  Q 258.48 28.76 258.39 28.16
  Q 257.62 23.24 260.56 19.75
  A 1.51 1.51 0.0 0 1 262.91 19.80
  Q 265.31 22.91 265.13 27.22
  C 265.07 28.44 264.26 29.03 263.53 29.85
  A 0.94 0.94 0.0 0 0 263.52 31.09
  C 266.90 34.95 270.09 34.67 274.61 35.62
  Q 281.53 37.07 281.88 43.32
  Q 282.08 46.90 278.72 49.57
  C 273.70 53.55 268.36 50.15 263.62 47.52
  C 261.37 46.27 258.34 45.92 257.01 48.67
  C 255.56 51.68 259.75 53.58 262.07 53.83
  C 266.03 54.26 271.01 53.84 272.73 58.37
  C 275.31 65.17 268.76 67.22 263.59 68.15
  Q 261.60 68.50 260.28 69.76
  C 256.04 73.81 262.04 78.34 264.81 74.32
  Q 266.38 72.02 267.61 69.60
  C 269.54 65.78 275.63 64.77 278.18 68.46
  C 281.95 73.89 276.80 78.89 272.44 81.89
  C 269.88 83.66 266.89 84.26 264.13 85.63
  Q 262.18 86.59 262.79 88.50
  A 1.08 1.06 1.3 0 0 263.45 89.18
  Z"
/>
<path fill="#ffffff" d="
  M 91.43 87.36
  C 94.58 86.61 97.81 82.85 93.93 80.33
  C 91.92 79.02 89.02 78.63 86.61 78.41
  Q 82.02 78.00 77.94 76.18
  C 68.64 72.03 70.77 61.29 79.66 58.47
  Q 91.41 54.75 100.66 61.97
  A 1.27 1.27 0.0 0 1 100.83 63.81
  L 98.15 66.87
  Q 97.51 67.61 96.78 66.95
  Q 89.80 60.53 81.13 63.98
  Q 78.97 64.84 78.72 67.06
  C 78.28 70.98 85.84 72.24 88.66 72.46
  C 94.41 72.91 103.12 75.42 102.35 82.83
  Q 101.62 89.89 94.78 92.12
  Q 81.22 96.56 70.17 87.20
  A 0.35 0.35 0.0 0 1 70.12 86.71
  L 73.89 82.04
  Q 74.03 81.88 74.17 82.03
  Q 81.38 89.72 91.43 87.36
  Z"
/>
<path fill="#ffffff" d="
  M 303.21 85.76
  C 309.67 88.86 315.40 87.48 320.91 83.55
  Q 321.89 82.85 322.32 83.98
  Q 322.99 85.73 324.16 87.19
  Q 324.92 88.13 323.92 88.80
  C 315.29 94.63 303.85 95.55 295.87 88.51
  C 289.28 82.70 288.35 72.08 293.67 65.06
  C 301.16 55.18 315.54 55.40 324.72 62.85
  A 0.30 0.30 0.0 0 1 324.77 63.26
  L 321.31 67.96
  A 0.31 0.30 38.1 0 1 320.87 68.01
  C 314.91 62.78 306.62 61.64 300.40 67.06
  C 294.49 72.21 295.84 82.21 303.21 85.76
  Z"
/>
<path fill="#ffffff" d="
  M 140.12 57.80
  L 146.97 57.74
  A 0.30 0.30 0.0 0 1 147.21 58.22
  L 131.81 78.92
  A 0.30 0.30 0.0 0 0 131.75 79.10
  L 131.92 92.54
  A 0.30 0.30 0.0 0 1 131.62 92.84
  L 125.92 92.92
  A 0.30 0.30 0.0 0 1 125.62 92.62
  L 125.64 79.09
  A 0.30 0.30 0.0 0 0 125.58 78.91
  L 109.43 58.24
  A 0.30 0.30 0.0 0 1 109.67 57.75
  L 117.13 57.80
  A 0.30 0.30 0.0 0 1 117.37 57.92
  L 128.62 73.04
  A 0.30 0.30 0.0 0 0 129.11 73.03
  L 139.88 57.92
  A 0.30 0.30 0.0 0 1 140.12 57.80
  Z"
/>
<path fill="#ffffff" d="
  M 162.98 68.28
  Q 164.37 79.91 163.87 92.55
  Q 163.86 92.87 163.54 92.87
  L 157.88 92.89
  Q 157.56 92.89 157.56 92.58
  L 157.55 58.49
  Q 157.55 57.79 158.26 57.78
  L 162.78 57.76
  Q 163.36 57.76 163.79 58.16
  Q 165.27 59.54 166.63 61.06
  Q 175.27 70.70 184.58 80.78
  Q 185.77 82.07 186.73 83.51
  Q 187.60 84.81 187.79 83.25
  C 187.85 82.67 187.41 81.91 187.38 81.27
  Q 186.84 69.80 187.01 58.10
  Q 187.02 57.85 187.27 57.85
  L 192.77 57.78
  A 0.49 0.49 0.0 0 1 193.27 58.27
  L 193.28 92.50
  Q 193.28 93.02 192.75 93.00
  L 187.47 92.82
  A 1.13 1.11 -19.9 0 1 186.70 92.47
  L 163.92 67.84
  Q 162.77 66.60 162.98 68.28
  Z"
/>
<path fill="#ffffff" d="
  M 208.33 58.28
  A 0.41 0.41 0.0 0 1 208.74 57.87
  L 226.30 57.84
  A 17.77 17.15 -0.1 0 1 244.10 74.96
  L 244.10 75.78
  A 17.77 17.15 -0.1 0 1 226.36 92.96
  L 208.80 92.99
  A 0.41 0.41 0.0 0 1 208.39 92.58
  L 208.33 58.28
  Z
  M 214.78 64.02
  L 214.90 86.92
  A 0.23 0.23 0.0 0 0 215.13 87.15
  L 225.93 87.09
  A 11.41 10.73 -0.3 0 0 237.28 76.30
  L 237.27 74.40
  A 11.41 10.73 -0.3 0 0 225.81 63.73
  L 215.01 63.79
  A 0.23 0.23 0.0 0 0 214.78 64.02
  Z"
/>
<path fill="#ffffff" d="
  M 342.38 85.43
  L 339.32 92.63
  A 0.32 0.32 0.0 0 1 339.03 92.82
  L 333.04 92.96
  A 0.32 0.32 0.0 0 1 332.74 92.51
  L 348.50 57.98
  A 0.32 0.32 0.0 0 1 348.79 57.79
  L 354.84 57.77
  A 0.32 0.32 0.0 0 1 355.14 57.96
  L 370.78 92.47
  A 0.32 0.32 0.0 0 1 370.49 92.92
  L 364.44 92.85
  A 0.32 0.32 0.0 0 1 364.15 92.67
  L 360.72 85.43
  A 0.32 0.32 0.0 0 0 360.43 85.25
  L 342.67 85.23
  A 0.32 0.32 0.0 0 0 342.38 85.43
  Z
  M 357.71 79.70
  A 0.46 0.46 0.0 0 0 358.10 79.01
  Q 354.49 72.82 352.55 66.37
  Q 351.91 64.25 351.03 66.28
  L 345.41 79.25
  A 0.35 0.35 0.0 0 0 345.73 79.74
  L 357.71 79.70
  Z"
/>
<path fill="#ffffff" d="
  M 387.44 63.74
  L 375.89 63.79
  A 0.32 0.32 0.0 0 1 375.57 63.47
  L 375.55 58.15
  A 0.32 0.32 0.0 0 1 375.87 57.83
  L 406.78 57.92
  A 0.32 0.32 0.0 0 1 407.10 58.24
  L 407.05 63.40
  A 0.32 0.32 0.0 0 1 406.73 63.72
  L 394.49 63.67
  A 0.32 0.32 0.0 0 0 394.17 63.99
  L 394.15 92.60
  A 0.32 0.32 0.0 0 1 393.83 92.92
  L 388.06 92.86
  A 0.32 0.32 0.0 0 1 387.74 92.54
  L 387.76 64.06
  A 0.32 0.32 0.0 0 0 387.44 63.74
  Z"
/>
<path fill="#ffffff" d="
  M 424.90 72.24
  L 442.88 72.24
  A 0.37 0.37 0.0 0 1 443.25 72.61
  L 443.25 77.57
  A 0.37 0.37 0.0 0 1 442.88 77.94
  L 424.85 77.86
  A 0.37 0.37 0.0 0 0 424.48 78.23
  L 424.53 86.85
  A 0.37 0.37 0.0 0 0 424.90 87.22
  L 445.54 87.17
  A 0.37 0.37 0.0 0 1 445.91 87.54
  L 445.88 92.58
  A 0.37 0.37 0.0 0 1 445.51 92.95
  L 418.75 92.93
  A 0.37 0.37 0.0 0 1 418.38 92.56
  L 418.36 58.20
  A 0.37 0.37 0.0 0 1 418.73 57.83
  L 445.40 57.86
  A 0.37 0.37 0.0 0 1 445.77 58.22
  L 445.86 63.13
  A 0.37 0.37 0.0 0 1 445.49 63.51
  L 424.83 63.59
  A 0.37 0.37 0.0 0 0 424.46 63.96
  L 424.53 71.87
  A 0.37 0.37 0.0 0 0 424.90 72.24
  Z"
/>
<path fill="#ffffff" d="
  M 205.20 123.94
  L 212.38 123.85
  Q 212.93 123.85 212.99 124.39
  L 213.07 125.00
  Q 213.20 125.93 212.25 125.93
  L 203.01 125.89
  A 0.63 0.63 0.0 0 1 202.38 125.26
  L 202.29 112.82
  Q 202.29 111.81 203.26 111.54
  Q 203.46 111.48 203.66 111.51
  Q 204.47 111.61 204.47 112.43
  L 204.46 123.20
  Q 204.46 123.94 205.20 123.94
  Z"
/>
<path fill="#ffffff" d="
  M 233.4200 118.8642
  A 8.15 7.38 0.1 0 1 225.2571 126.2300
  A 8.15 7.38 0.1 0 1 217.1200 118.8358
  A 8.15 7.38 0.1 0 1 225.2829 111.4700
  A 8.15 7.38 0.1 0 1 233.4200 118.8642
  Z
  M 231.23 118.86
  A 6.00 5.36 0.0 0 0 225.23 113.50
  A 6.00 5.36 0.0 0 0 219.23 118.86
  A 6.00 5.36 0.0 0 0 225.23 124.22
  A 6.00 5.36 0.0 0 0 231.23 118.86
  Z"
/>
<path fill="#ffffff" d="
  M 241.14 115.25
  Q 240.42 114.42 240.48 115.52
  L 241.03 124.95
  Q 241.07 125.72 240.31 125.83
  L 239.40 125.96
  Q 238.75 126.05 238.75 125.40
  L 238.75 113.81
  Q 238.75 109.42 241.67 112.70
  L 250.61 122.70
  Q 251.18 123.33 251.38 122.51
  Q 251.53 121.91 251.17 121.38
  Q 250.88 120.96 250.88 120.45
  L 250.86 112.06
  Q 250.86 111.73 251.19 111.74
  L 252.70 111.74
  Q 253.16 111.75 253.16 112.20
  L 253.14 125.06
  Q 253.14 125.53 252.72 125.74
  Q 251.34 126.45 250.26 125.30
  Q 245.60 120.36 241.14 115.25
  Z"
/>
<path fill="#ffffff" d="
  M 294.1600 118.8884
  A 8.13 7.39 0.2 0 1 286.0042 126.2500
  A 8.13 7.39 0.2 0 1 277.9000 118.8316
  A 8.13 7.39 0.2 0 1 286.0558 111.4700
  A 8.13 7.39 0.2 0 1 294.1600 118.8884
  Z
  M 292.1100 118.8594
  A 6.09 5.33 -0.1 0 0 286.0107 113.5400
  A 6.09 5.33 -0.1 0 0 279.9300 118.8806
  A 6.09 5.33 -0.1 0 0 286.0293 124.2000
  A 6.09 5.33 -0.1 0 0 292.1100 118.8594
  Z"
/>
<path fill="#ffffff" d="
  M 301.28 115.21
  L 301.59 125.35
  Q 301.61 125.73 301.25 125.83
  Q 300.57 126.03 299.89 125.89
  Q 299.35 125.79 299.35 125.24
  L 299.38 113.96
  Q 299.39 109.65 302.36 112.77
  Q 306.37 116.99 310.98 122.35
  Q 312.26 123.84 311.96 121.90
  Q 311.25 117.36 311.58 112.09
  A 0.51 0.50 -84.1 0 1 312.15 111.62
  L 313.45 111.77
  Q 313.82 111.82 313.82 112.20
  L 313.89 125.06
  Q 313.90 125.52 313.49 125.73
  Q 312.12 126.45 311.01 125.27
  Q 306.08 120.03 301.66 115.07
  A 0.22 0.21 24.2 0 0 301.28 115.21
  Z"
/>
<path fill="#ffffff" d="
  M 273.31 121.24
  C 271.86 127.33 264.32 125.85 259.92 125.88
  Q 259.49 125.88 259.49 125.46
  L 259.49 112.27
  Q 259.49 111.68 260.08 111.71
  C 263.23 111.85 267.11 111.12 269.95 112.58
  Q 274.79 115.06 273.31 121.24
  Z
  M 261.46 114.18
  L 261.42 123.52
  A 0.38 0.38 0.0 0 0 261.80 123.90
  L 266.59 123.92
  A 4.91 4.81 0.2 0 0 271.52 119.13
  L 271.52 118.65
  A 4.91 4.81 0.2 0 0 266.63 113.82
  L 261.84 113.80
  A 0.38 0.38 0.0 0 0 261.46 114.18
  Z"
/>
</svg>
